# AST/ASF file generated using VICON BodyLanguage
# -----------------------------------------------
:version 1.10
:name VICON
:units
  mass 1.0
  length 0.45
  angle deg
:documentation
   .ast/.asf automatically generated from VICON data using
   VICON BodyBuilder and BodyLanguage model FoxedUp or BRILLIANT.MOD
:root
   order TX TY TZ RX RY RZ
   axis XYZ
   position 0 0 0  
   orientation 0 0 0 
:bonedata
  begin
     id 1 
     name lhipjoint
     direction 0.54267 -0.795011 0.271047 
     length 2.39899 
     axis 0 0 0  XYZ
  end
  begin
     id 2 
     name lfemur
     direction 0.34202 -0.939693 0  
     length 7.49701  
     axis 0 0 20  XYZ
    dof rx ry rz
    limits (-160.0 20.0)
           (-70.0 70.0)
           (-60.0 70.0)
  end
  begin
     id 3 
     name ltibia
     direction 0.34202 -0.939693 0   
     length 8.1668   
     axis 0 0 20   XYZ
    dof rx
    limits (-10.0 170.0)
  end
  begin
     id 4 
     name lfoot
     direction 0.0736283 -0.202292 0.976554   
     length 2.13544   
     axis -90 7.62852e-016 20   XYZ
    dof rx rz
    limits (-45.0 90.0)
           (-70.0 20.0)
  end
  begin
     id 5 
     name ltoes
     direction 1.53557e-011 -4.22024e-011 1   
     length 1.07411   
     axis -90 7.62852e-016 20   XYZ
    dof rx
    limits (-90.0 20.0)
  end
  begin
     id 6 
     name rhipjoint
     direction -0.538061 -0.797813 0.272002   
     length 2.39057  
     axis 0 0 0  XYZ 
  end
  begin
     id 7 
     name rfemur
     direction -0.34202 -0.939693 0   
     length 7.50152   
     axis 0 0 -20   XYZ
    dof rx ry rz
    limits (-160.0 20.0)
           (-70.0 70.0)
           (-70.0 60.0)
  end
  begin
     id 8 
     name rtibia
     direction -0.34202 -0.939693 0   
     length 8.05793   
     axis 0 0 -20   XYZ
    dof rx
    limits (-10.0 170.0)
 end
 begin
     id 9 
     name rfoot
     direction -0.0765195 -0.210236 0.974652   
     length 2.28698  
     axis -90 -7.62852e-016 -20   XYZ
    dof rx rz
    limits (-45.0 90.0)
           (-20.0 70.0)
  end
  begin
     id 10 
     name rtoes
     direction -1.53542e-011 -4.21847e-011 1   
     length 1.14762   
     axis -90 -7.62852e-016 -20   XYZ
    dof rx
    limits (-90.0 20.0)
  end
  begin
     id 11 
     name lowerback
     direction -0.0217239 0.996592 -0.0795765   
     length 2.08176   
     axis 0 0 0   XYZ
    dof rx ry rz
    limits (-20.0 45.0)
           (-30.0 30.0)
           (-30.0 30.0)
  end
  begin
     id 12 
     name upperback
     direction -0.00563773 0.999651 -0.0258155   
     length 2.08898   
     axis 0 0 0   XYZ
    dof rx ry rz
    limits (-20.0 45.0)
           (-30.0 30.0)
           (-30.0 30.0)
  end
  begin
     id 13 
     name thorax
     direction 0.0032706 0.999923 0.0119599   
     length 2.0968   
     axis 0 0 0   XYZ
    dof rx ry rz
    limits (-20.0 45.0)
           (-30.0 30.0)
           (-30.0 30.0)
  end
  begin
     id 14 
     name lowerneck
     direction -0.0285886 0.99568 0.0883427   
     length 1.81272   
     axis 0 0 0   XYZ
    dof rx ry rz
    limits (-20.0 45.0)
           (-30.0 30.0)
           (-30.0 30.0)
  end
  begin
     id 15 
     name upperneck
     direction 0.0807535 0.97985 -0.18268   
     length 1.82518   
     axis 0 0 0   XYZ
    dof rx ry rz
    limits (-20.0 45.0)
           (-30.0 30.0)
           (-30.0 30.0)
  end
  begin
     id 16
     name head
     direction 0.0236605 0.997053 -0.0729767  
     length 1.84443  
     axis 0 0 0   XYZ
    dof rx ry rz
    limits (-20.0 45.0)
           (-30.0 30.0)
           (-30.0 30.0)
  end
  begin
     id 17 
     name lclavicle
     direction 0.918986 0.39378 -0.0200683  
     length 3.27822  
     axis 0 0 0   XYZ
    dof ry rz
    limits (-20.0 10.0)
           (0.0 20.0)
  end
  begin
     id 18 
     name lhumerus
     direction 1 -4.4897e-011 2.09544e-027   
     length 5.5568   
     axis 180 -30 -90   XYZ
    dof rx ry rz
    limits (-60.0 90.0)
           (-90.0 90.0)
           (-90.0 90.0)
  end
  begin
     id 19
     name lradius
     direction 1 -4.48957e-011 -1.27696e-026   
     length 3.63979   
     axis 180 -30 -90   XYZ
    dof rx
    limits (-10.0 170.0)
  end
  begin
     id 20
     name lwrist
     direction 1 -4.49001e-011 -1.49001e-026   
     length 1.8199   
     axis 9.0955e-015 90 90   XYZ
    dof ry
    limits (-180.0 0.0)
 end
  begin
     id 21 
     name lhand
     direction 1 -4.48709e-011 -2.9758e-026   
     length 0.569419   
     axis 1.90115e-014 90 90   XYZ
    dof rx rz
    limits (-90.0 90.0)
           (-45.0 45.0)
  end
  begin
     id 22 
     name lfingers
     direction 1 -4.49175e-011 -5.96505e-026   
     length 0.45908   
     axis 3.80223e-014 90 90   XYZ
    dof rx
    limits (0.0 90.0)
  end
  begin
     id 23
     name lthumb
     direction 0.707107 -6.34864e-011 0.707107   
     length 0.65915   
     axis -90 45 -3.84942e-014   XYZ
    dof rx rz
    limits (-45.0 45.0)
           (-45.0 45.0)
  end
  begin
     id 24 
     name rclavicle
     direction -0.911913 0.396426 -0.106115   
     length 3.46301  
     axis 0 0 0   XYZ 
    dof ry rz
    limits (-10.0 20.0)
           (-20.0 0.0)
  end
  begin
     id 25 
     name rhumerus
     direction -1 -4.48965e-011 7.78516e-028  
     length 5.34339   
     axis 180 30 90   XYZ
    dof rx ry rz
    limits (-90.0 60.0)
           (-90.0 90.0)
           (-90.0 90.0)
  end
  begin
     id 26 
     name rradius
     direction -1 -4.48948e-011 -5.79823e-027   
     length 3.65101   
     axis 180 30 90   XYZ
    dof rx
    limits (-10.0 170.0)
  end
  begin
     id 27 
     name rwrist
     direction -1 -4.48995e-011 -1.48996e-026   
     length 1.8255   
     axis 9.0955e-015 -90 -90   XYZ
    dof ry
    limits (-180.0 0.0)
  end
  begin
     id 28
     name rhand
     direction -1 -4.48957e-011 -2.97937e-026   
     length 0.694249   
     axis 1.90115e-014 -90 -90   XYZ
    dof rx rz
    limits (-90.0 90.0)
           (-45.0 45.0)
  end
  begin
     id 29
     name rfingers
     direction -1 -4.4898e-011 -5.95943e-026   
     length 0.559721   
     axis 3.80223e-014 -90 -90   XYZ
    dof rx
    limits (0.0 90.0)
  end
  begin
     id 30
     name rthumb
     direction -0.707107 -6.34969e-011 0.707107   
     length 0.803651   
     axis -90 -45 3.84942e-014   XYZ
    dof rx rz
    limits (-45.0 45.0)
           (-45.0 45.0)
  end
:hierarchy
  begin
    root lhipjoint rhipjoint lowerback
    lhipjoint lfemur
    lfemur ltibia
    ltibia lfoot
    lfoot ltoes
    rhipjoint rfemur
    rfemur rtibia
    rtibia rfoot
    rfoot rtoes
    lowerback upperback
    upperback thorax
    thorax lowerneck lclavicle rclavicle
    lowerneck upperneck
    upperneck head
    lclavicle lhumerus
    lhumerus lradius
    lradius lwrist
    lwrist lhand lthumb
    lhand lfingers
    rclavicle rhumerus
    rhumerus rradius
    rradius rwrist
    rwrist rhand rthumb
    rhand rfingers
  end

#!OML:ASF H:\Terrain\Walking\May29\JustinRory\rory.ASF
:FULLY-SPECIFIED
:DEGREES
180
root 9.93077 17.6347 -16.8221 35.5536 72.2534 33.8095
lowerback 8.59943 0.62054 5.10389
upperback 6.42165 1.34361 1.08925
thorax 1.94182 0.908567 -1.81953
lowerneck -4.62143 -5.59659 -9.1825
upperneck 34.3909 1.94865 -18.4292
head 12.7067 -1.51853 -5.23939
rclavicle -7.95139e-015 -7.95139e-015
rhumerus -9.66948 23.6695 -21.9581
rradius 53.6024
rwrist -36.2241
rhand -8.95978 22.0688
rfingers 7.12502
rthumb 16.9852 -7.20854
lclavicle -7.95139e-015 -7.95139e-015
lhumerus -39.2763 14.7594 52.053
lradius 30.8476
lwrist -8.95546
lhand -10.5362 14.3983
lfingers 7.12502
lthumb 15.4673 43.7995
rfemur -25.5541 -10.5185 -8.02278
rtibia 49.7611
rfoot -9.39666 17.7613
rtoes -15.4662
lfemur -18.2059 7.32823 -28.5585
ltibia 33.3742
lfoot -15.9036 3.37488
ltoes -4.58947
181
root 9.93541 17.6418 -16.7745 34.8487 72.8294 33.0675
lowerback 8.79258 0.439801 5.97711
upperback 6.4214 1.18079 1.28566
thorax 1.84618 0.85294 -2.0966
lowerneck -4.70538 -5.76645 -9.01335
upperneck 34.6328 1.76725 -18.514
head 12.8108 -1.60091 -5.34776
rclavicle -3.33958e-014 -3.02153e-014
rhumerus -9.50133 23.7434 -22.1133
rradius 53.4905
rwrist -36.6622
rhand -9.34179 22.335
rfingers 7.12502
rthumb 16.6174 -6.97361
lclavicle -3.33958e-014 -3.02153e-014
lhumerus -38.8768 15.2346 50.0819
lradius 29.5742
lwrist -9.02557
lhand -10.6779 14.8715
lfingers 7.12502
lthumb 15.3308 44.2832
rfemur -25.3861 -10.5254 -8.04574
rtibia 49.6047
rfoot -9.78388 16.587
rtoes -14.1624
lfemur -18.0971 7.41405 -27.8101
ltibia 33.2907
lfoot -15.6885 2.81725
ltoes -2.91289
182
root 9.93956 17.6524 -16.7246 33.8424 73.6395 32.1969
lowerback 9.19287 0.180247 6.99133
upperback 6.38069 0.952914 1.62123
thorax 1.58719 0.761994 -2.30541
lowerneck -4.40817 -5.88023 -8.84517
upperneck 34.7789 1.60432 -18.6264
head 12.7905 -1.64792 -5.44111
rclavicle -2.8625e-014 5.08889e-014
rhumerus -9.42518 23.8537 -22.3862
rradius 53.2478
rwrist -36.894
rhand -9.79113 22.408
rfingers 7.12502
rthumb 16.1848 -6.93633
lclavicle -2.8625e-014 5.08889e-014
lhumerus -39.0989 15.7794 48.156
lradius 28.9838
lwrist -9.15157
lhand -11.0156 15.4777
lfingers 7.12502
lthumb 15.0055 44.914
rfemur -24.7231 -10.6054 -7.91611
rtibia 49.1029
rfoot -11.2718 14.1934
rtoes -16.4501
lfemur -17.6599 7.34396 -26.8705
ltibia 32.9648
lfoot -15.3741 2.34522
ltoes -1.99841
183
root 9.95513 17.6365 -16.6577 37.2601 73.3639 35.9293
lowerback 9.2763 0.000366476 5.94852
upperback 6.45179 0.648853 1.67533
thorax 1.56331 0.579016 -1.64606
lowerneck -4.12292 -5.89594 -9.18251
upperneck 34.9134 1.59177 -18.4734
head 12.8012 -1.66548 -5.32382
rclavicle 1.03368e-014 -2.70347e-014
rhumerus -8.80575 24.3561 -22.3132
rradius 52.9865
rwrist -37.0682
rhand -10.6176 21.7103
rfingers 7.12502
rthumb 15.3889 -7.69693
lclavicle 1.03368e-014 -2.70347e-014
lhumerus -39.7851 17.0047 46.1107
lradius 28.6235
lwrist -9.45218
lhand -11.9922 16.0373
lfingers 7.12502
lthumb 14.0646 45.5414
rfemur -23.96 -10.7673 -9.76181
rtibia 48.3676
rfoot -12.8116 11.4563
rtoes -19.7356
lfemur -17.1548 7.59405 -27.768
ltibia 32.6253
lfoot -15.2176 1.78382
ltoes -0.746072
184
root 10.0232 17.5851 -16.6031 43.679 71.3897 43.2645
lowerback 9.12202 0.094354 3.50679
upperback 6.85725 0.58751 1.02697
thorax 2.03079 0.497779 -0.942569
lowerneck -4.05563 -6.13309 -9.48006
upperneck 35.0721 1.34478 -18.4916
head 12.8545 -1.8123 -5.3205
rclavicle 1.19271e-014 -3.49861e-014
rhumerus -8.45471 24.7521 -22.1971
rradius 52.7955
rwrist -36.9198
rhand -11.2509 21.0274
rfingers 7.12502
rthumb 14.7788 -8.42568
lclavicle 1.19271e-014 -3.49861e-014
lhumerus -39.9872 18.3604 44.0828
lradius 28.1407
lwrist -9.8847
lhand -12.873 16.9633
lfingers 7.12502
lthumb 13.2156 46.5244
rfemur -22.6278 -11.2204 -14.2048
rtibia 47.3518
rfoot -13.6445 10.1849
rtoes -18.6088
lfemur -15.9551 8.24961 -30.8311
ltibia 32.4528
lfoot -15.5508 1.2124
ltoes 0.239273
185
root 10.0269 17.5717 -16.5107 46.1127 71.3961 45.2247
lowerback 8.75721 0.247025 3.37657
upperback 6.70038 0.757522 0.966988
thorax 2.07201 0.573249 -0.941113
lowerneck -4.09329 -6.59821 -8.94578
upperneck 35.3796 0.77885 -18.861
head 12.9286 -2.04105 -5.65224
rclavicle 1.11319e-014 1.90833e-014
rhumerus -9.32216 24.9071 -22.7036
rradius 52.6263
rwrist -36.6178
rhand -11.6334 21.5775
rfingers 7.12502
rthumb 14.4103 -7.90224
lclavicle 1.11319e-014 1.90833e-014
lhumerus -39.2714 18.5117 42.5472
lradius 27.7364
lwrist -9.53088
lhand -13.8834 18.2354
lfingers 7.12502
lthumb 12.2416 47.8571
rfemur -22.2824 -10.9436 -15.1633
rtibia 46.1183
rfoot -14.8618 6.67592
rtoes -18.8379
lfemur -16.4234 8.33344 -31.0804
ltibia 32.3191
lfoot -15.0906 0.643625
ltoes 0.0373455
